<svg width="1200" height="600" viewBox="0 0 1200 600" fill="none" xmlns="http://www.w3.org/2000/svg">
    <!-- Wave Pattern Background -->
    <rect width="1200" height="600" fill="#F8F9FA"/>
    
    <!-- First Wave Layer -->
    <path d="M0 150C100 120 200 180 300 150C400 120 500 80 600 100C700 120 800 180 900 150C1000 120 1100 80 1200 100V600H0V150Z" fill="#E0F5FF" fill-opacity="0.3"/>
    
    <!-- Second Wave Layer -->
    <path d="M0 250C100 220 200 280 300 250C400 220 500 180 600 200C700 220 800 280 900 250C1000 220 1100 180 1200 200V600H0V250Z" fill="#FAD4D4" fill-opacity="0.2"/>
    
    <!-- Third Wave Layer -->
    <path d="M0 350C100 320 200 380 300 350C400 320 500 280 600 300C700 320 800 380 900 350C1000 320 1100 280 1200 300V600H0V350Z" fill="#F0E6EF" fill-opacity="0.3"/>
    
    <!-- Decorative Circles -->
    <circle cx="200" cy="100" r="20" fill="#CDB4DB" fill-opacity="0.1"/>
    <circle cx="600" cy="150" r="30" fill="#A9D6E5" fill-opacity="0.1"/>
    <circle cx="1000" cy="120" r="25" fill="#FFCFD2" fill-opacity="0.1"/>
</svg>