<svg width="40" height="40" viewBox="0 0 40 40" fill="none" xmlns="http://www.w3.org/2000/svg">
    <!-- Background Circle -->
    <circle cx="20" cy="20" r="19" fill="#F0E6EF" stroke="#CDB4DB" stroke-width="2"/>
    
    <!-- Twitter/X Bird -->
    <path d="M31 12C30.1 12.5 29.1 12.9 28.1 13.1C27.1 12.2 25.8 11.7 24.4 11.7C21.7 11.7 19.5 13.9 19.5 16.6C19.5 17 19.5 17.4 19.6 17.8C15.5 17.6 11.9 15.6 9.5 12.6C9 13.4 8.8 14.2 8.8 15.1C8.8 16.8 9.7 18.2 11 19.1C10.2 19.1 9.4 18.8 8.7 18.5C8.7 18.5 8.7 18.5 8.7 18.6C8.7 21 10.4 23 12.6 23.4C12.2 23.5 11.7 23.6 11.3 23.6C11 23.6 10.7 23.6 10.4 23.5C11 25.4 12.8 26.8 14.9 26.8C13.2 28.1 11.1 28.8 8.8 28.8C8.4 28.8 8 28.8 7.6 28.7C9.7 30.1 12.2 30.9 14.8 30.9C24.4 30.9 29.6 23.1 29.6 16.3C29.6 16.1 29.6 15.9 29.6 15.7C30.5 15 31.3 14.1 32 13.1C31.2 13.4 30.3 13.6 29.4 13.7C30.3 13.1 31 12.2 31.3 11.1C30.4 11.6 29.4 12 28.4 12.2C31 10.2 28.4 7 25.5 8.2C24.3 8.7 23.4 9.8 23.2 11.1C23 12.4 23.4 13.7 24.4 14.6C23.6 14.6 22.8 14.4 22.1 14C22.1 16.4 23.9 18.5 26.3 18.8C25.5 19 24.7 19 23.9 18.8C24.5 20.7 26.2 22.1 28.3 22.1C26.7 23.4 24.7 24 22.6 23.7C24.7 25 27.2 25.6 29.6 25.3C32.1 25 34.3 23.7 35.8 21.8" stroke="#CDB4DB" stroke-width="2" stroke-linecap="round" stroke-linejoin="round"/>
</svg>